<?xml version="1.0" standalone="no"?>
<!DOCTYPE svg PUBLIC "-//W3C//DTD SVG 20010904//EN"
 "http://www.w3.org/TR/2001/REC-SVG-20010904/DTD/svg10.dtd">
<svg version="1.0" xmlns="http://www.w3.org/2000/svg"
 width="512.000000pt" height="512.000000pt" viewBox="0 0 512.000000 512.000000"
 preserveAspectRatio="xMidYMid meet">
<metadata>
Created by potrace 1.11, written by Peter Selinger 2001-2013
</metadata>
<g transform="translate(0.000000,512.000000) scale(0.100000,-0.100000)"
fill="#000000" stroke="none">
<path d="M724 4436 c-20 -9 -35 -25 -43 -46 -8 -24 -11 -251 -11 -787 0 -832
-2 -810 60 -832 24 -8 250 -11 787 -11 832 0 810 -2 832 60 16 46 16 1524 0
1570 -22 62 0 60 -836 60 -615 -1 -764 -3 -789 -14z"/>
<path d="M2799 4437 c-39 -30 -39 -33 -39 -840 l0 -784 26 -27 27 -26 792 0
792 0 27 26 26 27 0 792 0 792 -26 27 -27 26 -791 0 c-606 -1 -795 -3 -807
-13z"/>
<path d="M699 2331 l-29 -29 0 -787 0 -787 29 -29 29 -29 781 0 c550 0 787 3
804 11 14 6 30 22 36 36 16 34 16 1562 0 1596 -6 14 -22 30 -36 36 -17 8 -254
11 -804 11 l-781 0 -29 -29z"/>
<path d="M2814 2346 c-20 -9 -35 -25 -43 -46 -8 -24 -11 -251 -11 -787 0 -844
-3 -813 67 -833 27 -8 262 -10 805 -8 l767 3 23 23 23 23 0 794 0 794 -23 23
-23 23 -777 2 c-639 2 -783 0 -808 -11z"/>
</g>
</svg>
